<svg fill="none" height="45" viewBox="0 0 180 45" width="180" xmlns="http://www.w3.org/2000/svg">
<path d="M99.2432 24.0553H102.112C102.112 25.3433 103.022 26.1058 104.561 26.1058C106.101 26.1058 106.917 25.5521 106.917 24.5874C106.917 23.3674 105.541 23.137 104.001 22.8834C101.972 22.5601 99.5464 22.1706 99.5464 19.5217C99.5464 17.3337 101.412 16.0208 104.561 16.0208C107.71 16.0208 109.553 17.4248 109.553 19.8201H106.684C106.684 18.6001 105.914 17.9089 104.561 17.9089C103.278 17.9089 102.509 18.4161 102.509 19.2681C102.509 20.3041 103.791 20.5113 105.284 20.7649C107.36 21.1097 109.879 21.5241 109.879 24.2409C109.879 26.613 107.897 28.0402 104.561 28.0402C101.202 28.0402 99.2432 26.5666 99.2432 24.0553Z" fill="#010101"></path>
<path d="M111.63 11.161H114.709V14.0386H111.63V11.161ZM111.63 16.2482H114.709V27.8067H111.63V16.2482Z" fill="#010101"></path>
<path d="M151.87 10.0785H154.949V27.8083H151.87V10.0785Z" fill="#010101"></path>
<path d="M168.312 22.3745H159.776C159.892 24.4929 160.919 25.7361 162.575 25.7361C164.021 25.7361 165.024 24.9521 165.327 23.6856H168.312C167.893 26.4257 165.745 28.0385 162.575 28.0385C158.936 28.0385 156.79 25.8041 156.79 22.0297C156.79 18.2553 158.936 16.0208 162.575 16.0208C166.213 16.0208 168.312 18.2304 168.312 22.0297V22.3745ZM159.797 21.3385H165.302C165.115 19.404 164.112 18.2984 162.573 18.2984C161.01 18.2984 160.007 19.404 159.797 21.3385Z" fill="#010101"></path>
<path d="M169.362 24.0553H172.231C172.231 25.3433 173.141 26.1058 174.68 26.1058C176.22 26.1058 177.036 25.5521 177.036 24.5874C177.036 23.3674 175.66 23.137 174.121 22.8834C172.091 22.5601 169.666 22.1706 169.666 19.5217C169.666 17.3337 171.531 16.0208 174.68 16.0208C177.829 16.0208 179.672 17.4248 179.672 19.8201H176.803C176.803 18.6001 176.033 17.9089 174.68 17.9089C173.397 17.9089 172.628 18.4161 172.628 19.2681C172.628 20.3041 173.911 20.5113 175.403 20.7649C177.479 21.1097 179.998 21.5241 179.998 24.2409C179.998 26.613 178.016 28.0402 174.68 28.0402C171.322 28.0402 169.362 26.5666 169.362 24.0553Z" fill="#010101"></path>
<path d="M145.334 16.0177C143.198 16.0177 141.765 17.0653 141.31 18.8821H141.109V16.2481H138.033V33.1028H141.112V23.8234H141.159C141.159 26.4706 142.721 28.0371 145.334 28.0371C148.273 28.0371 150.022 25.8026 150.022 22.0282C150.022 18.2522 148.273 16.0177 145.332 16.0177H145.334ZM143.911 25.6203C142.045 25.6203 140.949 24.1467 140.949 22.0282C140.949 19.9098 142.045 18.4362 143.911 18.4362C145.777 18.4362 146.873 19.7706 146.873 22.0282C146.873 24.2843 145.777 25.6203 143.911 25.6203Z" fill="#010101"></path>
<path d="M131.691 16.0177C129.668 16.0177 128.378 17.2195 128.09 19.3147H127.914C127.6 17.2643 126.226 16.0177 124.087 16.0177C122.169 16.0177 120.87 17.0554 120.453 18.8821H120.261V16.2481H117.183V27.8067H120.261V21.4282C120.261 19.5402 121.171 18.413 122.736 18.413C124.112 18.413 124.905 19.2882 124.905 20.785V27.8083H127.984V21.4298C127.984 19.5418 128.893 18.4146 130.433 18.4146C131.809 18.4146 132.625 19.2899 132.625 20.7867V27.81H135.704V20.6491C135.701 17.7251 134.208 16.0194 131.689 16.0194L131.691 16.0177Z" fill="#010101"></path>
<path d="M141.156 23.7768H140.79V25.0508H141.443L141.156 23.7768Z" fill="#010101"></path>
<path d="M41.1406 21.9609C41.1406 18.2545 43.2398 16.0432 46.7386 16.0432C49.5608 16.0432 51.4735 17.4936 52.0349 20.0497H50.1223C49.6092 18.4849 48.4429 17.5865 46.7386 17.5865C44.4527 17.5865 43.0999 19.2209 43.0999 21.9609C43.0999 24.7009 44.4527 26.3353 46.7386 26.3353C48.5346 26.3353 49.7474 25.3458 50.1906 23.6417H52.1032C51.5901 26.3353 49.6775 27.9018 46.7386 27.9018C43.2398 27.9018 41.1406 25.6905 41.1406 21.9609Z" fill="#010101"></path>
<path d="M52.9219 21.9609C52.9219 18.2545 55.0444 16.0432 58.5898 16.0432C62.1351 16.0432 64.2343 18.2528 64.2343 21.9609C64.2343 25.669 62.1351 27.9018 58.5898 27.9018C55.0444 27.9018 52.9219 25.6905 52.9219 21.9609ZM62.2984 21.9609C62.2984 19.2209 60.9222 17.5865 58.5898 17.5865C56.2573 17.5865 54.8811 19.2209 54.8811 21.9609C54.8811 24.7009 56.2573 26.3353 58.5898 26.3353C60.9222 26.3353 62.2984 24.7241 62.2984 21.9609Z" fill="#010101"></path>
<path d="M80.7962 17.6775V24.3328C80.7962 25.5993 81.5659 26.3369 82.8954 26.3369C83.4785 26.3369 84.085 26.1993 84.5515 25.9689V27.4425C83.945 27.7194 83.1053 27.9033 82.289 27.9033C80.1431 27.9033 78.8836 26.6369 78.8836 24.4489V17.6792H77.0176V16.2752H79.0235V12.3135H80.7945L80.7995 16.2735H84.7381V17.6775H80.7978H80.7962Z" fill="#010101"></path>
<path d="M71.9078 16.0432C69.9085 16.0432 68.5624 17.0726 68.1342 18.8661H67.9409V16.2736H66.0283V27.6714H67.9409V21.4321C67.9409 19.0137 69.1538 17.5865 71.2297 17.5865C73.0957 17.5865 74.1686 18.7153 74.1686 20.6265V27.6714H76.0813V20.5801C76.0813 17.724 74.5435 16.0432 71.9078 16.0432Z" fill="#010101"></path>
<path d="M94.3031 16.2736V18.8661H94.1298C93.7017 17.0743 92.2122 16.0432 89.988 16.0432C86.9092 16.0432 85.0898 18.2528 85.0898 21.9609C85.0898 25.669 86.9092 27.9018 89.988 27.9018C92.2055 27.9018 93.6933 26.8608 94.1248 25.0739H94.3031V27.673H96.2157V16.2753H94.3031V16.2736ZM94.2614 20.0033H94.2564V19.9867L94.2614 20.0033ZM90.7344 26.3353C88.402 26.3353 87.0491 24.7241 87.0491 21.9609C87.0491 19.1977 88.402 17.5865 90.7344 17.5865C93.0669 17.5865 94.443 19.2673 94.443 21.9609C94.443 24.6545 93.0902 26.3353 90.7344 26.3353Z" fill="#010101"></path>
<path d="M31.6068 24.8849L24.7544 18.1202L30.7238 12.2241C31.037 11.9141 31.037 11.4102 30.7238 11.1002L19.7212 0.23621C19.403 -0.0787367 18.8849 -0.0787367 18.5667 0.23621L0.236791 18.3357C-0.0697617 18.639 -0.0780919 19.1247 0.208468 19.4397L0.220131 19.4529L0.225129 19.4579L7.08425 26.2293L2.00114 21.2117L7.08425 26.2309L1.11813 32.1188C0.799916 32.4337 0.799916 32.9443 1.11813 33.2575L12.1124 44.1149C12.4306 44.4299 12.9487 44.4299 13.267 44.1149L31.6052 26.0088C31.9184 25.7021 31.9184 25.1982 31.6052 24.8866L31.6068 24.8849ZM20.1177 13.7938C20.1177 13.7938 20.1111 13.7938 20.1061 13.7938H20.1144H20.1177ZM7.61739 25.7038L1.05316 19.2242L19.5263 13.9596C19.5013 13.9795 19.473 13.9977 19.448 14.0209L7.61739 25.7038Z" fill="#010101"></path>
</svg>